<svg viewBox="0 0 24 24" xmlns="http://www.w3.org/2000/svg"><path d="M9.011 2.582a1.953 1.953 0 0 0-.875.505 1.93 1.93 0 0 0 0 2.826c.807.775 2.006.754 2.777-.049.759-.79.759-1.938 0-2.728-.498-.519-1.236-.734-1.902-.554m10 0a2.058 2.058 0 0 0-1.43 1.44 1.94 1.94 0 0 0 .555 1.891c.807.775 2.006.754 2.777-.049.759-.79.759-1.938 0-2.728-.498-.519-1.236-.734-1.902-.554m-15 5a1.953 1.953 0 0 0-.875.505 1.93 1.93 0 0 0 0 2.826c.807.775 2.006.754 2.777-.049.759-.79.759-1.938 0-2.728-.498-.519-1.236-.734-1.902-.554m10 0a2.058 2.058 0 0 0-1.43 1.44 1.94 1.94 0 0 0 .555 1.891c.807.775 2.006.754 2.777-.049.759-.79.759-1.938 0-2.728-.498-.519-1.236-.734-1.902-.554m-5 5a2.058 2.058 0 0 0-1.43 1.44 1.94 1.94 0 0 0 .555 1.891c.807.775 2.006.754 2.777-.049.759-.79.759-1.938 0-2.728-.498-.519-1.236-.734-1.902-.554m10 0a2.058 2.058 0 0 0-1.43 1.44 1.94 1.94 0 0 0 .555 1.891c.807.775 2.006.754 2.777-.049.759-.79.759-1.938 0-2.728-.498-.519-1.236-.734-1.902-.554m-15 5a1.953 1.953 0 0 0-.875.505 1.93 1.93 0 0 0 0 2.826c.807.775 2.006.754 2.777-.049.759-.79.759-1.938 0-2.728-.498-.519-1.236-.734-1.902-.554m10 0a2.058 2.058 0 0 0-1.43 1.44 1.94 1.94 0 0 0 .555 1.891c.807.775 2.006.754 2.777-.049.759-.79.759-1.938 0-2.728-.498-.519-1.236-.734-1.902-.554" fill-rule="evenodd" /></svg>
