<svg xmlns="http://www.w3.org/2000/svg" class="icon icon-tabler icon-tabler-arrows-shuffle" viewBox="0 0 24 24" stroke-width="2" stroke="currentColor" fill="none" stroke-linecap="round" stroke-linejoin="round"><path d="M17.626 3.045c-.369.194-.675.628-.675.955 0 .307.128.488.898 1.266l.719.727-1.674.018c-1.751.02-1.97.04-2.638.241-.671.203-1.607.707-2.01 1.083-.383.359-.382.856.002 1.322.198.24.452.383.681.383.246 0 .399-.065.866-.368.207-.134.524-.304.703-.377.619-.252.721-.264 2.482-.283l1.6-.018-.725.733c-.434.439-.76.804-.814.91-.178.351-.089.717.258 1.064.347.347.712.436 1.064.259.117-.059.688-.595 1.699-1.595.837-.828 1.572-1.539 1.635-1.581.153-.102.352-.546.352-.784 0-.255-.198-.679-.373-.799-.075-.051-.811-.763-1.636-1.583-.955-.948-1.561-1.52-1.668-1.574a.88.88 0 0 0-.746.001M2.614 6.057a.814.814 0 0 0-.505.396c-.074.139-.089.231-.089.547 0 .331.013.403.1.558.11.197.294.34.515.401.087.024.837.041 1.865.041 2.226.001 2.512.04 3.34.464.866.443 1.556 1.226 1.917 2.176.136.357.206.779.243 1.461.057 1.052.247 1.799.672 2.635.811 1.6 2.318 2.743 4.148 3.147.368.082.532.09 2.074.106l1.675.018-.719.726c-.431.436-.755.798-.809.904-.178.351-.089.717.258 1.064.347.347.712.436 1.064.259.117-.059.688-.595 1.699-1.595.837-.828 1.572-1.539 1.635-1.581.153-.102.352-.546.352-.784 0-.255-.198-.679-.373-.799-.075-.051-.811-.763-1.636-1.583-.955-.948-1.561-1.52-1.668-1.574-.352-.176-.733-.085-1.073.255-.347.347-.436.713-.258 1.064.054.106.379.469.812.907l.722.73h-1.471c-1.329 0-1.511-.008-1.877-.083-1.387-.282-2.486-1.228-2.989-2.573-.134-.358-.196-.732-.237-1.436-.062-1.045-.245-1.793-.627-2.557a5.575 5.575 0 0 0-1.105-1.546 5.862 5.862 0 0 0-3.705-1.766c-.611-.059-3.749-.045-3.95.018m6.084 8.978a4.842 4.842 0 0 0-.493.297 4.176 4.176 0 0 1-1.238.558c-.288.08-.429.086-2.308.108l-2.001.022-.199.102c-.34.175-.481.484-.45.982.029.459.241.748.626.855.193.054 3.643.054 4.086 0a6.066 6.066 0 0 0 2.699-1.032c.463-.325.62-.55.62-.887 0-.341-.25-.747-.597-.967a.787.787 0 0 0-.745-.038" fill-rule="evenodd" stroke="none"/></svg>
